<?xml version="1.0" encoding="utf-8"?>
<!-- Generator: Adobe Illustrator 23.0.2, SVG Export Plug-In . SVG Version: 6.00 Build 0)  -->
<svg version="1.1" id="Layer_1" xmlns="http://www.w3.org/2000/svg" xmlns:xlink="http://www.w3.org/1999/xlink" x="0px" y="0px"
	 viewBox="0 0 104 55" style="enable-background:new 0 0 312.75 55;" xml:space="preserve">
<style type="text/css">
	.st0{fill:url(#SVGID_1_);}
	.st1{fill:#78849E;}
</style>
<g>
	<linearGradient id="SVGID_1_" gradientUnits="userSpaceOnUse" x1="0.3019" y1="27.3152" x2="103.991" y2="27.3152">
		<stop  offset="0" style="stop-color:#6158FF"/>
		<stop  offset="0.33" style="stop-color:#5773FF"/>
		<stop  offset="0.66" style="stop-color:#3497FD"/>
		<stop  offset="1" style="stop-color:#3ACCE1"/>
	</linearGradient>
	<path class="st0" d="M77.31,0.63C77.31,0.63,77.31,0.63,77.31,0.63c-7.28,0-14.44,3.1-20.9,9c4.61,5.28,7.28,10.14,7.88,11.29
		c0.07,0.13,0.38,0.66,0.88,1.45c3.33-3.45,7.6-6.48,12.14-6.48c6.31,0,11.44,5.13,11.44,11.44s-5.13,11.44-11.44,11.44c0,0,0,0,0,0
		v0c-0.01,0-0.01,0-0.02,0c0,0-0.01,0-0.01,0c-0.19,0-0.37-0.01-0.55-0.02c0,0,0,0-0.01,0c-0.06,0-0.12-0.01-0.18-0.01
		c0,0-0.01,0-0.01,0c-0.14-0.01-0.28-0.02-0.41-0.04c-0.01,0-0.01,0-0.02,0c-0.05-0.01-0.1-0.01-0.15-0.02c0,0-0.01,0-0.01,0
		c-0.18-0.02-0.36-0.05-0.54-0.08c0,0-0.01,0-0.01,0c-0.04-0.01-0.08-0.02-0.12-0.02c-0.02,0-0.03-0.01-0.05-0.01
		c-0.13-0.02-0.26-0.05-0.38-0.08c-0.01,0-0.02,0-0.03-0.01c-0.06-0.01-0.11-0.03-0.17-0.04c-0.01,0-0.02,0-0.03-0.01
		c-0.12-0.03-0.25-0.06-0.37-0.1c-0.03-0.01-0.05-0.01-0.08-0.02c-0.03-0.01-0.06-0.02-0.1-0.03c-0.01,0-0.01,0-0.02-0.01
		c-0.17-0.05-0.33-0.1-0.5-0.16c-0.01,0-0.02-0.01-0.03-0.01c-0.05-0.02-0.1-0.03-0.15-0.05c-0.02-0.01-0.04-0.02-0.07-0.02
		c-0.1-0.04-0.2-0.07-0.3-0.11c-0.02-0.01-0.04-0.02-0.06-0.02c-0.05-0.02-0.1-0.04-0.15-0.06c-0.01-0.01-0.03-0.01-0.04-0.02
		c-0.11-0.04-0.22-0.09-0.33-0.14c-0.06-0.03-0.12-0.05-0.18-0.08c-0.01,0-0.02-0.01-0.02-0.01c-0.06-0.03-0.13-0.06-0.19-0.09
		c-0.09-0.04-0.18-0.08-0.26-0.13c-0.02-0.01-0.04-0.02-0.06-0.03c-0.05-0.02-0.1-0.05-0.15-0.07c-0.03-0.01-0.05-0.03-0.08-0.04
		c-0.08-0.04-0.15-0.08-0.23-0.12c-0.04-0.02-0.08-0.04-0.13-0.07c-0.04-0.02-0.07-0.04-0.11-0.06c-0.02-0.01-0.03-0.02-0.05-0.03
		c-0.05-0.03-0.09-0.05-0.13-0.08c-0.11-0.06-0.23-0.13-0.34-0.2c-0.03-0.02-0.06-0.04-0.09-0.05c-0.06-0.03-0.11-0.07-0.16-0.1
		c-0.06-0.04-0.12-0.07-0.17-0.11c-0.03-0.02-0.07-0.04-0.1-0.06c-0.04-0.03-0.08-0.05-0.13-0.08c-0.03-0.02-0.06-0.04-0.09-0.06
		c-0.05-0.03-0.09-0.06-0.14-0.1c-0.09-0.06-0.17-0.11-0.26-0.17c-0.01,0-0.01-0.01-0.02-0.01c-0.13-0.09-0.25-0.18-0.38-0.27
		c-0.02-0.01-0.03-0.02-0.05-0.03c-0.03-0.02-0.06-0.04-0.09-0.06c-0.03-0.02-0.06-0.05-0.09-0.07c-0.05-0.04-0.1-0.08-0.15-0.12
		c-0.04-0.03-0.07-0.06-0.11-0.08c-0.05-0.04-0.11-0.08-0.16-0.12c-0.03-0.02-0.06-0.04-0.09-0.07c-0.02-0.01-0.03-0.03-0.05-0.04
		c-0.29-0.23-0.58-0.47-0.86-0.72c-0.02-0.02-0.04-0.03-0.06-0.05c-0.02-0.02-0.05-0.04-0.07-0.06c-0.05-0.04-0.1-0.09-0.14-0.13
		c-0.01-0.01-0.03-0.03-0.04-0.04c-0.09-0.08-0.18-0.16-0.27-0.24c0,0-0.01-0.01-0.01-0.01c-0.16-0.15-0.33-0.3-0.49-0.46
		c0,0,0,0,0,0c-0.09-0.09-0.18-0.18-0.27-0.27c0,0,0,0,0,0c-0.06-0.06-0.12-0.12-0.19-0.18c-0.01-0.01-0.02-0.02-0.03-0.03
		c-0.03-0.03-0.07-0.07-0.1-0.1c-0.16-0.16-0.31-0.31-0.46-0.47c-0.08-0.08-0.15-0.16-0.23-0.24c-0.14-0.15-0.29-0.31-0.43-0.46
		c-0.09-0.1-0.19-0.21-0.28-0.31c-0.11-0.13-0.23-0.26-0.34-0.39c-0.11-0.13-0.22-0.25-0.33-0.38c-0.09-0.1-0.17-0.21-0.26-0.31
		c-0.12-0.15-0.24-0.3-0.36-0.44c-0.06-0.08-0.12-0.16-0.19-0.23c-0.13-0.17-0.26-0.33-0.39-0.5c-0.04-0.05-0.08-0.1-0.12-0.16
		c-0.14-0.19-0.28-0.37-0.41-0.55c-0.02-0.02-0.03-0.05-0.05-0.07c-0.24-0.32-0.47-0.64-0.68-0.95c0,0,0,0,0,0
		c-1.39-1.99-2.19-3.44-2.21-3.48c-0.27-0.53-2.62-4.93-6.77-9.77c0,0,0,0,0,0c-0.4-0.47-0.82-0.94-1.25-1.41
		C43.9,5.02,35.93,0.89,27.78,0.64c-0.26-0.01-0.53-0.01-0.79-0.01v0c0,0,0,0,0,0C12.27,0.63,0.3,12.6,0.3,27.32S12.27,54,26.99,54
		c7.28,0,14.44-3.1,20.91-9c-4.61-5.27-7.28-10.14-7.88-11.28c-0.07-0.13-0.38-0.66-0.88-1.45c-3.33,3.45-7.61,6.48-12.14,6.48
		c-6.31,0-11.44-5.13-11.44-11.44s5.13-11.44,11.44-11.44v0c0,0,0,0,0,0v0c10.21,0,18.33,14.82,18.4,14.95
		c0.3,0.58,3.09,5.82,8.02,11.17c0.1,0.11,0.2,0.21,0.3,0.32c0.18,0.19,0.36,0.38,0.53,0.56c0.14,0.15,0.29,0.3,0.43,0.44
		c0.22,0.23,0.45,0.45,0.67,0.67c0.17,0.16,0.33,0.32,0.5,0.48c0.18,0.17,0.36,0.34,0.55,0.51c0.14,0.13,0.28,0.25,0.42,0.38
		c0.27,0.24,0.54,0.48,0.81,0.71c0.13,0.11,0.27,0.22,0.4,0.33c0.19,0.16,0.39,0.32,0.59,0.48c0.13,0.1,0.26,0.21,0.38,0.3
		c0.28,0.22,0.56,0.43,0.85,0.64c0.13,0.1,0.27,0.19,0.4,0.29c0.22,0.16,0.44,0.31,0.66,0.46c0.14,0.1,0.28,0.19,0.43,0.29
		c0.26,0.17,0.52,0.34,0.78,0.51c0.13,0.08,0.26,0.16,0.39,0.24c0.27,0.17,0.54,0.33,0.82,0.48c0.12,0.07,0.25,0.14,0.37,0.21
		c0.24,0.14,0.49,0.27,0.74,0.4c0.12,0.06,0.25,0.13,0.37,0.19c0.31,0.16,0.62,0.31,0.93,0.45c0.11,0.05,0.21,0.1,0.32,0.14
		c0.25,0.11,0.5,0.22,0.75,0.33c0.11,0.05,0.22,0.09,0.33,0.14c0.32,0.13,0.64,0.25,0.96,0.37c0.11,0.04,0.22,0.08,0.33,0.12
		c0.27,0.1,0.54,0.19,0.81,0.27c0.09,0.03,0.17,0.06,0.25,0.08c0.33,0.1,0.66,0.2,1,0.29c0.11,0.03,0.21,0.06,0.32,0.08
		c0.32,0.08,0.64,0.16,0.95,0.23c0.28,0.06,0.57,0.12,0.85,0.17c0.04,0.01,0.08,0.01,0.12,0.02c0.21,0.04,0.41,0.07,0.62,0.11
		c0.07,0.01,0.14,0.02,0.21,0.03c0.18,0.03,0.36,0.05,0.53,0.07c0.08,0.01,0.16,0.02,0.24,0.03c0.17,0.02,0.34,0.04,0.51,0.05
		c0.08,0.01,0.17,0.02,0.25,0.02c0.17,0.02,0.34,0.03,0.51,0.04c0.08,0.01,0.16,0.01,0.24,0.02c0.19,0.01,0.37,0.02,0.56,0.03
		c0.06,0,0.13,0.01,0.19,0.01C76.81,54,77.06,54,77.31,54h0.01c14.71-0.01,26.67-11.97,26.67-26.68
		C103.99,12.6,92.02,0.63,77.31,0.63z"/>
</g>
</svg>
