<?xml version="1.0" standalone="no"?>
<!DOCTYPE svg PUBLIC "-//W3C//DTD SVG 20010904//EN"
 "http://www.w3.org/TR/2001/REC-SVG-20010904/DTD/svg10.dtd">
<svg version="1.0" xmlns="http://www.w3.org/2000/svg"
 width="1664.000000pt" height="1664.000000pt" viewBox="0 0 1664.000000 1664.000000"
 preserveAspectRatio="xMidYMid meet">
<metadata>
Created by potrace 1.11, written by Peter Selinger 2001-2013
</metadata>
<g transform="translate(0.000000,1664.000000) scale(0.100000,-0.100000)"
fill="#000000" stroke="none">
<path d="M4098 12615 c-2 -1 -49 -5 -106 -9 -56 -4 -108 -9 -115 -11 -6 -2
-39 -7 -72 -9 -74 -7 -121 -13 -160 -21 -16 -3 -43 -8 -60 -10 -80 -12 -339
-71 -415 -94 -33 -10 -60 -18 -60 -16 0 2 -30 -8 -67 -21 -38 -14 -72 -26 -78
-27 -83 -22 -321 -117 -459 -183 -28 -13 -55 -24 -62 -24 -7 0 -14 -3 -16 -8
-1 -4 -44 -29 -95 -55 -111 -57 -295 -166 -305 -181 -4 -6 -8 -8 -8 -4 0 6
-110 -65 -144 -93 -6 -5 -47 -35 -91 -66 -44 -31 -82 -60 -85 -63 -3 -3 -26
-22 -52 -42 -147 -111 -407 -362 -563 -544 -22 -25 -45 -51 -50 -58 -29 -32
-127 -160 -177 -230 -32 -45 -62 -87 -68 -93 -6 -7 -9 -14 -8 -16 2 -1 -11
-21 -28 -42 -17 -22 -57 -85 -89 -140 -32 -55 -65 -111 -74 -125 -9 -14 -35
-61 -56 -105 -22 -44 -43 -81 -47 -83 -5 -2 -8 -9 -8 -14 0 -6 -16 -44 -35
-85 -19 -41 -35 -78 -35 -83 0 -6 -4 -10 -8 -10 -5 0 -9 -7 -9 -15 0 -8 -7
-29 -16 -47 -13 -28 -22 -49 -32 -78 -1 -3 -5 -14 -10 -25 -23 -55 -47 -122
-50 -135 -2 -8 -10 -33 -19 -55 -15 -39 -48 -150 -47 -160 0 -2 -7 -24 -15
-47 -13 -37 -30 -105 -50 -198 -3 -14 -9 -41 -14 -60 -5 -19 -11 -53 -15 -75
-5 -37 -8 -54 -20 -105 -1 -8 -7 -44 -11 -80 -4 -36 -8 -67 -9 -70 0 -3 -4
-10 -8 -17 -4 -6 -3 -14 3 -18 6 -4 8 -11 5 -16 -35 -55 -42 -813 -10 -979 4
-19 16 -109 21 -155 1 -16 6 -46 9 -65 3 -19 8 -44 10 -55 5 -28 55 -267 60
-285 15 -55 26 -92 40 -140 22 -76 21 -72 30 -105 4 -16 12 -35 16 -41 5 -6
10 -23 11 -38 1 -14 6 -26 10 -26 4 0 8 -8 8 -18 0 -10 18 -63 41 -118 22 -54
42 -103 43 -109 12 -43 176 -378 229 -468 26 -43 47 -80 47 -82 0 -12 181
-279 192 -283 4 -2 8 -9 8 -16 0 -7 8 -21 18 -32 10 -10 28 -35 42 -54 13 -19
27 -37 30 -40 4 -3 26 -30 49 -60 24 -30 66 -82 95 -114 28 -32 59 -68 69 -80
70 -81 273 -279 382 -371 39 -33 72 -62 75 -66 3 -3 23 -18 45 -35 46 -33 72
-55 89 -69 6 -6 34 -26 61 -45 28 -19 52 -37 53 -42 2 -4 10 -8 17 -8 7 0 15
-4 17 -9 4 -11 225 -151 238 -151 6 0 10 -4 10 -9 0 -5 8 -11 18 -15 9 -3 40
-19 67 -36 69 -41 348 -180 363 -180 7 0 12 -5 12 -10 0 -6 3 -9 8 -8 8 1 24
-5 92 -34 25 -11 50 -21 55 -22 6 -1 47 -16 92 -34 45 -18 90 -33 100 -35 10
-1 23 -5 28 -8 15 -9 136 -48 165 -53 14 -3 26 -5 28 -7 1 -1 5 -2 10 -3 4 -2
25 -8 47 -14 22 -6 51 -13 65 -16 14 -2 25 -5 25 -6 0 -1 16 -4 35 -7 19 -2
37 -9 38 -14 2 -5 8 -7 12 -4 5 3 30 0 57 -6 79 -18 134 -28 188 -34 17 -2 44
-6 60 -9 17 -3 48 -7 70 -10 22 -3 58 -8 80 -11 65 -8 323 -25 400 -26 49 -1
397 12 420 16 17 2 59 7 95 11 36 3 74 8 85 10 11 3 40 7 65 9 25 3 56 7 70
10 25 5 60 12 115 21 17 3 50 10 75 15 25 6 56 13 70 15 14 3 43 10 65 16 22
6 45 12 50 13 19 4 210 57 225 63 8 3 22 6 31 8 8 2 28 10 44 18 16 8 32 13
37 10 4 -3 8 0 8 7 0 7 3 10 6 6 4 -3 23 1 43 9 20 9 43 17 52 19 8 2 44 15
80 30 68 29 100 42 111 44 17 4 230 105 328 156 58 29 130 66 160 82 30 15 57
31 60 34 3 3 12 9 20 13 40 19 349 212 360 225 12 14 70 51 80 51 5 0 10 4 10
8 0 4 14 16 32 26 17 11 41 27 52 37 12 10 46 36 76 58 76 56 107 80 155 121
23 19 58 48 78 63 36 28 100 83 144 124 13 11 42 36 63 53 22 18 40 35 40 39
0 3 -11 18 -25 33 -14 15 -25 29 -25 32 0 3 -12 19 -27 35 -16 16 -32 36 -38
43 -5 7 -27 34 -48 58 -21 25 -46 54 -56 65 -9 11 -35 43 -56 70 -22 28 -42
52 -45 55 -3 3 -17 21 -30 40 -14 19 -30 42 -37 50 -22 27 -137 178 -158 207
-11 15 -55 76 -97 135 -43 60 -99 141 -125 180 -26 40 -53 79 -60 86 -6 6 -15
21 -18 32 -3 11 -11 20 -16 20 -5 0 -9 7 -9 15 0 8 -4 15 -10 15 -5 0 -10 6
-10 13 0 7 -8 22 -18 33 -10 10 -19 22 -20 26 -1 5 -19 34 -39 65 -21 32 -43
67 -49 78 -23 42 -39 70 -44 75 -6 6 -94 158 -141 245 -17 33 -41 72 -51 88
-11 15 -16 27 -13 27 4 0 -1 7 -9 16 -9 8 -16 22 -16 30 0 8 -4 14 -8 14 -5 0
-15 12 -23 28 -7 15 -25 45 -40 67 -14 22 -28 45 -30 52 -2 6 -68 -50 -145
-125 -143 -138 -213 -202 -222 -202 -3 0 -12 -8 -21 -18 -9 -10 -47 -42 -86
-72 -38 -30 -76 -60 -83 -67 -7 -7 -17 -13 -20 -13 -4 0 -18 -10 -32 -22 -45
-41 -356 -238 -376 -238 -5 0 -20 -9 -34 -20 -14 -11 -31 -20 -39 -20 -8 0
-22 -7 -32 -16 -9 -8 -23 -17 -31 -18 -16 -3 -59 -21 -113 -45 -52 -24 -213
-80 -245 -85 -14 -3 -25 -5 -25 -6 0 -1 -7 -3 -15 -5 -141 -31 -153 -33 -225
-42 -72 -9 -350 -9 -420 0 -82 11 -119 16 -145 23 -14 4 -35 7 -47 8 -13 0
-23 4 -23 8 0 4 -8 7 -17 6 -28 0 -79 16 -228 72 -11 4 -24 9 -30 10 -19 3
-190 94 -232 122 -23 15 -46 28 -50 28 -5 0 -19 9 -31 20 -12 12 -22 17 -22
13 0 -4 -4 -3 -8 3 -4 5 -41 36 -82 68 -140 109 -305 289 -395 431 -21 33 -41
62 -45 65 -9 8 -113 218 -138 280 -12 31 -22 63 -22 73 0 9 -4 17 -8 17 -5 0
-9 6 -9 13 0 6 -10 48 -21 92 -45 170 -55 251 -56 445 -1 96 3 204 8 240 5 36
10 76 11 90 2 14 8 45 14 70 7 25 14 56 17 70 2 14 8 34 11 45 4 11 7 22 8 25
0 3 9 30 20 60 11 30 20 57 20 60 1 3 7 19 14 35 17 43 21 54 20 61 0 4 4 10
11 14 6 4 12 13 14 21 4 22 53 114 102 190 24 38 44 72 44 75 0 3 6 11 13 18
6 7 21 25 32 41 47 66 256 284 317 330 89 67 138 101 217 148 52 32 96 57 98
57 2 0 30 13 62 29 94 47 261 104 366 126 129 28 178 34 287 39 48 2 91 7 96
10 5 3 12 3 15 0 3 -3 45 -7 94 -9 48 -1 88 -3 88 -4 0 -1 18 -4 40 -6 22 -1
51 -5 65 -9 13 -3 41 -8 61 -11 20 -3 50 -10 68 -15 17 -5 32 -8 34 -8 6 2
131 -36 207 -64 106 -38 331 -145 414 -198 35 -22 68 -40 74 -40 6 0 12 -4 14
-8 2 -4 37 -30 78 -57 41 -27 80 -54 87 -60 29 -24 39 -32 54 -41 18 -10 60
-43 194 -154 98 -81 401 -380 505 -498 97 -109 102 -115 140 -162 19 -23 43
-52 54 -64 10 -11 39 -48 64 -81 59 -76 72 -92 100 -123 12 -14 22 -31 22 -38
0 -7 4 -14 8 -16 11 -4 132 -167 132 -177 0 -5 3 -11 8 -13 10 -5 152 -215
152 -227 0 -5 4 -11 8 -13 5 -1 33 -43 63 -93 30 -49 56 -92 59 -95 6 -6 5 -4
100 -176 38 -70 70 -131 70 -136 0 -4 5 -8 10 -8 6 0 10 -7 10 -15 0 -8 3 -15
8 -15 4 0 13 -15 21 -32 8 -18 27 -52 43 -75 15 -23 28 -46 28 -51 0 -6 3 -12
8 -14 10 -4 62 -85 62 -97 0 -5 3 -11 8 -13 8 -3 52 -64 52 -73 0 -8 74 -110
82 -113 5 -2 8 -8 8 -14 0 -11 81 -131 93 -136 4 -2 7 -10 7 -18 0 -8 4 -14 8
-14 4 0 15 -12 24 -27 9 -16 25 -38 35 -50 10 -12 36 -47 58 -78 50 -69 272
-354 294 -377 9 -9 27 -31 41 -49 14 -18 34 -43 45 -55 11 -12 36 -41 55 -64
19 -23 49 -56 65 -74 17 -18 71 -77 120 -131 182 -199 468 -476 651 -632 72
-61 120 -100 138 -113 12 -8 28 -21 36 -29 23 -22 283 -216 319 -237 17 -10
31 -22 31 -26 0 -4 5 -8 11 -8 9 0 93 -54 109 -70 3 -3 14 -10 25 -17 80 -48
161 -98 165 -103 6 -6 65 -39 108 -59 17 -8 32 -19 32 -23 0 -4 9 -8 20 -8 11
0 20 -4 20 -10 0 -5 4 -10 9 -10 5 0 37 -16 70 -34 34 -19 61 -33 61 -30 0 3
13 -4 29 -15 16 -12 32 -21 35 -21 3 0 38 -15 78 -34 132 -61 276 -123 303
-130 6 -2 23 -8 38 -14 57 -24 284 -101 342 -117 33 -9 83 -22 112 -30 28 -8
62 -16 75 -19 53 -11 68 -15 76 -19 4 -3 29 -8 56 -11 27 -4 53 -9 57 -11 4
-3 24 -7 44 -11 21 -3 47 -8 59 -10 65 -13 201 -32 281 -38 28 -3 79 -7 115
-10 53 -5 243 -17 285 -17 88 -2 389 15 485 27 25 3 65 7 90 9 25 2 45 4 45 5
0 2 19 5 75 14 19 3 47 8 63 11 15 3 55 10 90 16 34 5 83 16 109 24 25 7 49
11 52 8 3 -3 13 0 22 8 10 8 18 12 18 10 1 -5 106 19 126 29 8 5 29 10 45 13
35 6 287 90 342 114 21 9 40 17 43 18 58 17 442 199 474 224 6 5 43 25 81 46
39 21 77 44 86 51 8 8 19 14 23 14 4 0 12 4 19 10 7 5 57 40 112 77 55 36 101
70 103 75 2 4 9 8 16 8 7 0 21 9 31 20 10 11 24 20 32 20 7 0 13 3 13 8 0 4
33 32 72 62 40 30 80 62 88 70 9 8 38 33 64 55 119 100 369 355 497 509 30 35
47 58 65 81 10 15 31 41 46 58 15 18 28 35 28 39 0 5 9 19 21 32 11 13 47 63
79 112 33 49 63 94 68 99 19 24 82 134 82 143 0 6 4 12 8 14 9 4 80 129 80
142 0 5 4 12 9 15 33 24 248 532 288 681 1 3 4 12 8 20 5 13 25 83 33 115 1 6
12 45 24 88 12 43 23 88 26 100 4 21 6 30 19 90 8 32 17 79 20 102 6 38 17 98
21 119 4 20 9 53 19 146 3 25 7 61 10 80 26 206 25 627 -1 890 -6 67 -11 105
-14 105 -1 0 -3 16 -5 35 -5 56 -15 120 -20 143 -3 12 -8 36 -10 52 -2 17 -4
30 -5 30 -1 0 -3 9 -5 20 -6 37 -28 130 -47 205 -10 41 -20 82 -22 90 -3 8 -9
27 -15 43 -6 15 -8 27 -6 27 3 0 -7 32 -21 71 -14 39 -28 83 -30 96 -3 14 -12
39 -20 54 -8 16 -14 31 -14 34 -1 9 -12 39 -31 82 -10 24 -19 49 -19 57 0 8
-4 17 -9 20 -5 3 -12 17 -15 31 -4 14 -29 73 -56 131 -28 57 -50 109 -50 114
0 6 -5 10 -12 10 -6 0 -8 3 -5 6 4 4 -2 19 -12 33 -9 14 -28 48 -40 76 -13 27
-36 68 -51 90 -15 22 -28 42 -27 45 0 14 -166 271 -237 365 -64 86 -79 105
-161 204 -112 135 -134 160 -275 301 -157 157 -260 247 -417 367 -15 12 -39
31 -52 42 -13 12 -28 21 -32 21 -4 0 -14 6 -21 13 -23 23 -194 137 -205 137
-6 0 -14 7 -17 16 -4 9 -9 14 -13 11 -3 -4 -19 5 -35 18 -16 14 -36 25 -44 25
-8 0 -14 4 -14 9 0 5 -8 11 -17 14 -18 6 -94 48 -103 57 -16 16 -369 182 -425
200 -22 7 -44 16 -50 19 -15 10 -192 75 -235 86 -3 1 -12 5 -20 8 -57 24 -422
116 -524 133 -21 3 -48 8 -60 10 -11 2 -37 7 -56 10 -19 3 -46 7 -59 9 -14 3
-52 7 -85 11 -34 3 -74 8 -91 10 -224 25 -685 25 -870 -1 -22 -3 -53 -7 -70
-9 -16 -3 -57 -8 -89 -12 -60 -6 -91 -11 -91 -14 0 -1 -15 -3 -34 -6 -19 -2
-44 -6 -55 -8 -12 -3 -45 -9 -75 -15 -30 -6 -73 -16 -95 -22 -23 -6 -48 -13
-56 -14 -59 -13 -112 -26 -136 -36 -16 -6 -40 -13 -54 -16 -42 -8 -55 -11 -55
-13 0 -1 -7 -3 -15 -5 -90 -22 -421 -152 -577 -226 -59 -28 -133 -62 -163 -76
-30 -14 -57 -28 -60 -32 -3 -3 -36 -22 -75 -41 -38 -19 -72 -38 -75 -41 -3 -4
-24 -16 -48 -28 -24 -12 -67 -38 -97 -57 -30 -18 -57 -34 -60 -34 -4 0 -12 -6
-20 -12 -7 -7 -48 -35 -90 -63 -129 -83 -246 -163 -285 -195 -27 -22 -82 -64
-126 -95 -15 -11 -32 -25 -38 -30 -6 -6 -36 -30 -66 -54 -30 -25 -59 -50 -65
-56 -5 -6 -19 -17 -31 -25 -12 -8 -52 -43 -90 -76 -38 -34 -80 -71 -93 -82
l-25 -19 35 -44 c19 -24 44 -55 56 -69 31 -36 53 -62 93 -111 19 -24 52 -64
73 -89 43 -51 38 -46 96 -122 24 -32 48 -58 54 -58 6 0 8 -3 4 -6 -3 -3 -1
-11 4 -18 5 -6 21 -24 35 -41 14 -16 32 -42 42 -57 9 -16 20 -28 24 -28 4 0 8
-5 8 -11 0 -7 10 -20 22 -30 11 -11 17 -19 13 -19 -5 0 1 -10 12 -22 89 -99
593 -878 593 -917 0 -5 3 -11 8 -13 4 -1 20 -28 36 -58 48 -91 166 -289 177
-295 5 -4 7 -10 4 -15 -3 -5 -2 -11 3 -14 5 -3 58 43 119 102 60 59 137 131
169 160 32 29 66 59 74 66 38 35 191 156 195 156 3 0 15 8 26 19 11 10 45 36
77 57 31 21 63 45 70 51 7 7 20 13 28 13 8 0 14 5 14 10 0 6 8 14 18 17 9 4
44 24 78 45 34 21 66 38 72 38 6 0 12 4 14 9 2 7 143 77 268 134 55 25 278 97
300 97 11 0 20 3 20 8 0 4 10 7 23 8 20 0 54 6 116 18 92 19 336 26 461 14
112 -12 287 -49 390 -84 8 -3 15 -4 16 -2 0 2 8 -3 17 -11 10 -7 17 -11 17 -8
0 4 19 -2 43 -12 205 -89 386 -200 522 -321 97 -86 244 -243 269 -289 5 -9 12
-18 15 -21 9 -7 75 -109 91 -140 7 -14 16 -27 20 -30 11 -8 70 -130 70 -145 0
-8 4 -15 9 -15 5 0 16 -21 26 -47 26 -73 86 -265 90 -288 8 -41 16 -91 21
-115 14 -77 18 -151 18 -295 0 -158 -4 -214 -24 -324 -22 -121 -39 -188 -57
-223 -7 -15 -13 -31 -13 -35 0 -13 -22 -75 -43 -123 -11 -25 -21 -47 -21 -50
-3 -14 -81 -158 -97 -179 -11 -13 -19 -29 -19 -36 0 -6 -9 -20 -20 -30 -11
-10 -18 -20 -15 -23 2 -3 -7 -15 -20 -28 -14 -13 -25 -27 -25 -31 0 -4 -13
-22 -28 -39 -15 -18 -37 -44 -49 -60 -56 -70 -236 -241 -282 -269 -10 -5 -33
-23 -53 -38 -84 -65 -345 -207 -381 -207 -7 0 -17 -4 -23 -8 -8 -8 -40 -20
-136 -51 -20 -7 -46 -14 -58 -16 -11 -3 -30 -7 -42 -10 -70 -15 -191 -35 -248
-40 -117 -10 -130 -10 -134 0 -3 7 -5 7 -5 0 -1 -10 -51 -10 -191 0 -36 2 -76
7 -90 10 -14 3 -43 8 -64 10 -21 3 -42 8 -46 10 -4 2 -20 7 -36 9 -16 3 -38 8
-49 10 -28 6 -186 55 -210 65 -11 5 -36 15 -55 21 -50 18 -285 134 -350 173
-112 66 -153 93 -180 115 -15 12 -32 22 -37 22 -6 0 -18 9 -28 20 -10 11 -22
20 -26 20 -8 0 -36 20 -64 48 -8 6 -16 12 -20 12 -4 0 -12 6 -19 13 -7 6 -28
23 -46 37 -18 14 -38 30 -44 35 -6 6 -47 42 -91 80 -94 80 -406 392 -485 484
-30 35 -64 73 -75 86 -22 24 -37 42 -105 125 -25 30 -47 57 -50 60 -11 10
-158 208 -205 275 -27 39 -52 72 -55 75 -4 3 -9 12 -13 20 -7 16 -109 165
-128 188 -6 7 -16 23 -22 35 -7 12 -30 49 -51 82 -22 33 -44 69 -51 80 -48 86
-78 136 -86 141 -5 3 -9 14 -9 25 0 10 -3 19 -8 19 -4 0 -25 35 -47 78 -22 42
-42 79 -45 82 -4 3 -17 25 -31 50 -13 25 -27 47 -31 48 -5 2 -8 8 -8 12 0 11
-99 170 -181 292 -33 48 -59 92 -59 98 0 6 -7 13 -15 16 -8 4 -15 10 -15 15 0
8 -116 179 -129 189 -3 3 -24 32 -46 65 -22 33 -42 62 -46 65 -6 6 -75 95
-104 136 -37 51 -149 189 -157 192 -4 2 -8 8 -8 12 0 5 -11 21 -25 36 -14 15
-36 40 -48 56 -12 16 -31 39 -42 52 -11 12 -45 51 -75 86 -30 35 -71 81 -90
103 -125 144 -454 477 -585 592 -44 39 -91 81 -105 95 -14 14 -34 32 -46 40
-21 15 -73 58 -136 113 -18 16 -67 54 -108 85 -41 31 -81 62 -88 69 -7 7 -17
13 -20 13 -4 0 -19 10 -32 23 -31 27 -51 41 -205 144 -149 100 -265 171 -390
240 -107 58 -359 185 -395 198 -19 7 -62 25 -95 40 -33 15 -70 31 -82 36 -13
5 -33 13 -45 18 -70 29 -192 71 -204 71 -8 0 -14 4 -14 8 0 4 -8 8 -17 9 -10
1 -72 18 -137 38 -113 34 -179 51 -236 61 -14 3 -38 9 -55 14 -31 9 -156 33
-187 36 -10 1 -19 2 -20 4 -7 4 -76 15 -178 26 -25 2 -61 7 -80 10 -84 13
-640 29 -652 19z"/>
</g>
</svg>
